<?xml version="1.0" standalone="no"?>
<!DOCTYPE svg PUBLIC "-//W3C//DTD SVG 20010904//EN"
 "http://www.w3.org/TR/2001/REC-SVG-20010904/DTD/svg10.dtd">
<svg version="1.0" xmlns="http://www.w3.org/2000/svg"
 width="1201.000000pt" height="1201.000000pt" viewBox="0 0 1201.000000 1201.000000"
 preserveAspectRatio="xMidYMid meet">
<metadata>
Created by potrace 1.14, written by Peter Selinger 2001-2017
</metadata>
<g transform="translate(0.000000,1201.000000) scale(0.100000,-0.100000)"
fill="#000000" stroke="none">
<path d="M5767 11964 c-1 -1 -38 -5 -82 -8 -77 -7 -121 -11 -195 -21 -19 -3
-55 -7 -80 -10 -25 -3 -107 -17 -183 -31 -592 -107 -1211 -371 -1702 -728 -70
-50 -256 -196 -265 -207 -3 -3 -30 -27 -60 -54 -111 -96 -322 -308 -400 -401
-89 -106 -121 -146 -161 -199 -24 -33 -47 -62 -50 -65 -3 -3 -40 -54 -81 -115
-285 -418 -496 -891 -619 -1390 -22 -88 -42 -173 -45 -190 -2 -16 -11 -66 -20
-110 -8 -44 -17 -102 -20 -130 -3 -27 -7 -56 -9 -63 -24 -69 -24 -912 -1
-1026 2 -6 6 -33 10 -61 4 -27 11 -72 16 -100 5 -27 11 -61 14 -75 50 -285
169 -678 289 -950 166 -379 408 -763 669 -1063 57 -67 312 -324 393 -397 184
-166 419 -343 580 -436 11 -6 61 -35 110 -64 125 -73 356 -188 510 -253 122
-51 372 -141 440 -158 17 -4 75 -19 130 -34 117 -31 96 -26 260 -58 282 -55
359 -61 760 -62 345 0 495 7 643 30 17 3 49 7 70 10 50 8 165 32 292 61 950
223 1805 780 2401 1566 80 106 279 399 279 411 0 3 21 40 46 83 25 42 74 136
108 208 87 182 110 234 156 356 81 215 150 456 195 690 8 41 17 85 19 97 3 11
7 43 11 70 4 26 8 57 10 69 2 11 6 52 10 90 4 38 8 80 11 94 20 130 20 681 -1
789 -2 11 -7 51 -10 88 -4 37 -9 75 -10 85 -2 9 -7 38 -11 65 -3 26 -8 57 -10
68 -2 11 -6 32 -9 48 -3 15 -7 39 -10 55 -3 15 -7 36 -9 47 -3 11 -11 49 -19
85 -47 213 -142 509 -220 690 -9 19 -23 53 -32 75 -34 79 -163 332 -220 430
-54 93 -210 334 -224 345 -4 3 -14 16 -22 30 -20 30 -142 185 -202 254 -110
129 -274 297 -390 398 -39 34 -74 66 -77 69 -24 29 -264 209 -395 296 -237
157 -549 320 -800 416 -138 53 -345 121 -435 143 -8 2 -49 12 -90 23 -107 29
-331 74 -423 86 -12 1 -47 5 -77 9 -87 11 -126 14 -275 21 -140 7 -483 13
-488 9z m2425 -2211 c59 -34 88 -66 106 -122 9 -24 12 -187 11 -557 l0 -524
-40 -50 c-52 -66 -95 -78 -304 -85 -375 -13 -398 -16 -442 -57 -25 -23 -61
-91 -69 -129 -5 -28 -5 -769 1 -916 5 -109 16 -150 58 -199 36 -43 82 -52 273
-59 339 -12 375 -15 427 -42 36 -18 84 -93 92 -143 7 -43 8 -866 1 -946 -10
-111 -73 -186 -178 -210 -18 -4 -823 -6 -1788 -6 -1703 2 -2388 6 -2479 17
-57 6 -126 61 -141 113 -7 23 -13 233 -16 549 l-6 512 23 33 c64 94 93 107
248 113 53 2 160 7 239 10 161 6 203 11 249 30 40 17 80 77 88 135 7 46 8 916
2 980 -9 82 -20 118 -44 144 -51 55 -64 57 -448 71 -143 5 -164 7 -227 20 -28
7 -76 48 -104 90 -16 24 -17 74 -17 575 l0 548 32 40 c17 22 53 51 79 64 46
22 56 23 362 26 173 1 324 4 335 5 11 1 830 2 1820 2 l1800 0 57 -32z"/>
<path d="M10188 2175 c-2 -1 -46 -5 -98 -8 -95 -7 -109 -8 -210 -28 -244 -48
-462 -178 -608 -362 -61 -77 -143 -246 -171 -352 -58 -225 -47 -519 29 -723
121 -324 405 -554 770 -622 112 -21 122 -22 264 -22 190 0 283 10 423 42 79
19 244 86 251 102 2 5 8 8 14 8 5 0 30 14 56 32 225 155 376 404 421 693 12
77 12 273 0 350 -61 392 -288 674 -650 806 -80 29 -187 58 -239 64 -102 12
-248 24 -252 20z m164 -681 c72 -25 164 -118 196 -197 18 -47 22 -77 22 -167
0 -135 -13 -201 -55 -266 -65 -101 -165 -155 -300 -160 -182 -7 -328 92 -370
253 -22 82 -21 268 2 325 47 121 141 206 253 228 60 12 195 4 252 -16z"/>
<path d="M5260 2155 c-213 -44 -377 -134 -476 -260 -137 -174 -158 -418 -54
-625 106 -209 264 -316 600 -405 222 -59 240 -65 267 -82 54 -35 63 -119 17
-150 -14 -8 -49 -16 -82 -17 -78 -3 -245 11 -296 25 -22 6 -41 10 -41 10 0 -1
-38 12 -85 29 -367 135 -396 141 -427 93 -16 -24 -18 -55 -18 -289 0 -297 -3
-285 85 -323 55 -24 190 -57 269 -66 30 -3 57 -8 60 -10 4 -2 42 -7 86 -10 44
-4 94 -9 110 -11 87 -12 410 -10 491 2 360 53 566 225 619 519 9 52 7 188 -5
239 -19 86 -59 156 -134 231 -39 39 -92 86 -119 104 -119 81 -317 160 -557
222 -69 18 -92 29 -122 59 -29 29 -38 46 -38 72 0 109 138 124 435 49 22 -5
98 -30 168 -56 71 -25 136 -45 146 -45 34 0 69 38 77 83 11 59 13 435 3 472
-5 17 -18 37 -28 46 -21 17 -149 55 -215 63 -21 3 -46 7 -55 10 -9 2 -47 7
-84 11 -37 3 -78 9 -90 11 -12 3 -116 7 -232 9 -151 3 -228 0 -275 -10z"/>
<path d="M1165 2100 c-105 -6 -143 -20 -168 -64 -9 -16 -12 -240 -12 -931 l0
-909 23 -28 c32 -37 67 -41 398 -41 323 0 368 5 389 37 16 23 24 179 29 514 1
86 5 141 11 140 6 -1 48 -54 94 -118 153 -210 194 -264 308 -412 63 -80 122
-150 131 -154 9 -4 182 -9 383 -12 l366 -4 31 38 c18 21 32 44 32 52 0 32 -71
143 -281 442 -86 124 -104 150 -218 312 l-103 147 78 113 c43 62 154 224 248
359 94 135 176 252 181 261 6 8 29 44 52 79 24 35 43 71 43 79 0 32 -39 78
-77 91 -52 17 -663 18 -713 1 -39 -13 -127 -118 -306 -362 -147 -201 -193
-263 -209 -282 -7 -9 -19 -26 -25 -38 -6 -12 -14 -19 -18 -16 -3 4 -7 149 -9
323 -5 406 13 380 -264 383 -90 1 -193 2 -229 3 -36 1 -110 0 -165 -3z"/>
<path d="M3607 2099 c-21 -3 -50 -15 -65 -26 l-27 -20 1 -889 c0 -489 2 -911
4 -939 8 -106 -3 -103 377 -104 l311 -2 23 38 24 38 0 910 c0 976 0 966 -49
985 -31 11 -537 19 -599 9z"/>
<path d="M6949 2100 c-131 -5 -129 -4 -184 -55 -8 -7 -11 -269 -11 -936 l1
-925 30 -32 30 -32 335 1 c184 1 349 5 366 10 50 14 66 40 70 113 3 52 8 274
14 571 0 17 2 17 17 -5 32 -46 397 -545 403 -550 3 -3 25 -30 49 -60 23 -30
50 -59 59 -65 22 -13 705 -17 747 -5 39 12 68 59 59 97 -11 41 -69 135 -214
343 -71 102 -178 257 -237 345 -60 88 -111 162 -114 165 -4 3 -9 14 -13 25 -4
15 13 47 67 122 69 98 161 229 275 392 151 217 222 330 233 374 13 45 12 48
-12 72 -31 32 -79 36 -414 38 -312 3 -357 -2 -397 -40 -28 -25 -280 -358 -437
-576 -35 -48 -66 -86 -68 -84 -2 3 -6 114 -8 248 -5 275 -12 374 -26 402 -20
36 -66 45 -244 47 -94 1 -188 2 -210 3 -22 1 -97 0 -166 -3z"/>
</g>
</svg>
